<?xml version="1.0" encoding="UTF-8" standalone="no"?>
<!DOCTYPE svg PUBLIC "-//W3C//DTD SVG 1.1//EN" "http://www.w3.org/Graphics/SVG/1.1/DTD/svg11.dtd">
<svg version="1.1" xmlns="http://www.w3.org/2000/svg" xmlns:xlink="http://www.w3.org/1999/xlink" preserveAspectRatio="xMidYMid meet" viewBox="0 0 640 640" width="100" height="100"><defs><path d="M358.6 480L318.75 415.2L278.9 480L240 480L296.84 391.64L243.64 308.67L283.71 308.67L320.63 370.31L356.84 308.67L395.98 308.67L342.19 393.64L400.08 480L358.6 480Z" id="a1zgafKNnM"></path><path d="M529.84 400.4L534.68 400.89L539.46 401.57L544.18 402.44L548.84 403.49L553.42 404.72L557.93 406.12L562.36 407.69L566.71 409.43L570.97 411.33L575.15 413.39L579.23 415.61L583.21 417.98L587.09 420.49L590.87 423.15L594.54 425.95L598.1 428.89L601.53 431.95L604.85 435.15L608.05 438.47L611.11 441.9L614.05 445.46L616.85 449.13L619.51 452.91L622.02 456.79L624.39 460.77L626.61 464.85L628.67 469.03L630.57 473.29L632.31 477.64L633.88 482.07L635.28 486.58L636.51 491.16L637.56 495.82L638.43 500.54L639.11 505.32L639.6 510.16L639.9 515.05L640 520L639.9 524.95L639.6 529.84L639.11 534.68L638.43 539.46L637.56 544.18L636.51 548.84L635.28 553.42L633.88 557.93L632.31 562.36L630.57 566.71L628.67 570.97L626.61 575.15L624.39 579.23L622.02 583.21L619.51 587.09L616.85 590.87L614.05 594.54L611.11 598.1L608.05 601.53L604.85 604.85L601.53 608.05L598.1 611.11L594.54 614.05L590.87 616.85L587.09 619.51L583.21 622.02L579.23 624.39L575.15 626.61L570.97 628.67L566.71 630.57L562.36 632.31L557.93 633.88L553.42 635.28L548.84 636.51L544.18 637.56L539.46 638.43L534.68 639.11L529.84 639.6L524.95 639.9L520 640L515.05 639.9L510.16 639.6L505.32 639.11L500.54 638.43L495.82 637.56L491.16 636.51L486.58 635.28L482.07 633.88L477.64 632.31L473.29 630.57L469.03 628.67L464.85 626.61L460.77 624.39L456.79 622.02L452.91 619.51L449.13 616.85L445.46 614.05L441.9 611.11L438.47 608.05L435.15 604.85L431.95 601.53L428.89 598.1L425.95 594.54L423.15 590.87L420.49 587.09L417.98 583.21L415.61 579.23L413.39 575.15L411.33 570.97L409.43 566.71L407.69 562.36L406.12 557.93L404.72 553.42L403.49 548.84L402.44 544.18L401.57 539.46L400.89 534.68L400.4 529.84L400.1 524.95L400 520L400.1 515.05L400.4 510.16L400.89 505.32L401.57 500.54L402.44 495.82L403.49 491.16L404.72 486.58L406.12 482.07L407.69 477.64L409.43 473.29L411.33 469.03L413.39 464.85L415.61 460.77L417.98 456.79L420.49 452.91L423.15 449.13L425.95 445.46L428.89 441.9L431.95 438.47L435.15 435.15L438.47 431.95L441.9 428.89L445.46 425.95L449.13 423.15L452.91 420.49L456.79 417.98L460.77 415.61L464.85 413.39L469.03 411.33L473.29 409.43L477.64 407.69L482.07 406.12L486.58 404.72L491.16 403.49L495.82 402.44L500.54 401.57L505.32 400.89L510.16 400.4L515.05 400.1L520 400L524.95 400.1L529.84 400.4ZM514.38 452.51L513.77 452.55L513.17 452.61L512.57 452.7L511.98 452.81L511.4 452.94L510.83 453.09L510.26 453.27L509.71 453.46L509.17 453.68L508.63 453.92L508.11 454.18L507.6 454.45L507.1 454.75L506.62 455.07L506.15 455.4L505.69 455.75L505.24 456.12L504.81 456.5L504.4 456.9L504 457.31L503.62 457.74L503.25 458.19L502.9 458.65L502.57 459.12L502.25 459.6L501.95 460.1L501.68 460.61L501.42 461.13L501.18 461.67L500.96 462.21L500.77 462.76L500.59 463.33L500.44 463.9L500.31 464.48L500.2 465.07L500.11 465.67L500.05 466.27L500.01 466.88L500 467.5L500 500L478.62 500L478.22 500.01L477.82 500.03L477.43 500.05L477.03 500.09L476.64 500.14L476.25 500.19L475.86 500.26L475.48 500.34L475.1 500.43L474.72 500.52L474.34 500.63L473.97 500.75L473.6 500.87L473.24 501.01L472.88 501.15L472.52 501.31L472.17 501.47L471.82 501.64L471.47 501.82L471.13 502.01L470.8 502.21L470.47 502.42L470.15 502.63L469.83 502.85L469.52 503.09L469.21 503.33L468.91 503.57L468.62 503.83L468.33 504.09L468.05 504.36L467.77 504.64L467.51 504.93L467.25 505.22L466.99 505.52L466.75 505.83L466.51 506.15L466.28 506.47L466.06 506.8L465.84 507.13L465.64 507.48L465.44 507.82L465.26 508.17L465.08 508.53L464.92 508.89L464.76 509.25L464.62 509.62L464.48 509.98L464.36 510.36L464.24 510.73L464.13 511.11L464.04 511.48L463.95 511.86L463.88 512.25L463.81 512.63L463.75 513.01L463.71 513.4L463.67 513.79L463.64 514.17L463.63 514.56L463.62 514.95L463.63 515.34L463.64 515.73L463.66 516.11L463.7 516.5L463.74 516.89L463.79 517.27L463.86 517.66L463.93 518.04L464.01 518.42L464.11 518.8L464.21 519.18L464.32 519.55L464.45 519.92L464.58 520.29L464.72 520.66L464.88 521.03L465.04 521.39L465.21 521.74L465.4 522.1L465.59 522.44L507.32 580.52L507.53 580.84L507.75 581.15L507.97 581.46L508.2 581.76L508.44 582.06L508.68 582.35L508.94 582.63L509.2 582.9L509.46 583.17L509.73 583.43L510.01 583.68L510.29 583.93L510.58 584.17L510.88 584.4L511.18 584.63L511.48 584.84L511.79 585.05L512.11 585.25L512.43 585.44L512.76 585.63L513.09 585.81L513.42 585.97L513.76 586.13L514.1 586.29L514.45 586.43L514.8 586.57L515.15 586.69L515.51 586.81L515.87 586.92L516.23 587.02L516.6 587.11L516.97 587.19L517.34 587.26L517.71 587.32L518.09 587.38L518.47 587.42L518.85 587.46L519.23 587.48L519.61 587.5L520 587.5L520.39 587.5L520.77 587.48L521.15 587.46L521.53 587.42L521.91 587.38L522.29 587.32L522.66 587.26L523.03 587.19L523.4 587.11L523.77 587.02L524.13 586.92L524.49 586.81L524.85 586.69L525.2 586.56L525.55 586.43L525.9 586.29L526.24 586.13L526.58 585.97L526.91 585.81L527.24 585.63L527.57 585.44L527.89 585.25L528.21 585.05L528.52 584.84L528.82 584.62L529.12 584.4L529.42 584.17L529.71 583.93L529.99 583.68L530.27 583.43L530.54 583.17L530.81 582.9L531.07 582.62L531.32 582.34L531.56 582.05L531.8 581.76L532.03 581.46L532.26 581.15L532.48 580.83L532.69 580.51L573.85 523.32L574.41 522.44L574.6 522.09L574.79 521.74L574.96 521.38L575.12 521.02L575.28 520.66L575.42 520.29L575.55 519.92L575.68 519.55L575.79 519.17L575.89 518.8L575.99 518.42L576.07 518.04L576.14 517.65L576.21 517.27L576.26 516.89L576.3 516.5L576.34 516.11L576.36 515.72L576.37 515.34L576.38 514.95L576.37 514.56L576.36 514.17L576.33 513.78L576.29 513.4L576.25 513.01L576.19 512.63L576.12 512.24L576.05 511.86L575.96 511.48L575.87 511.1L575.76 510.73L575.64 510.35L575.52 509.98L575.38 509.61L575.24 509.25L575.08 508.88L574.92 508.52L574.74 508.17L574.56 507.82L574.36 507.47L574.16 507.13L573.94 506.79L573.72 506.46L573.49 506.14L573.25 505.83L573.01 505.52L572.75 505.22L572.49 504.92L572.23 504.64L571.95 504.36L571.67 504.09L571.38 503.82L571.09 503.57L570.79 503.32L570.48 503.08L570.17 502.85L569.85 502.63L569.53 502.41L569.2 502.2L568.86 502.01L568.52 501.82L568.18 501.64L567.83 501.46L567.48 501.3L567.12 501.15L566.76 501L566.4 500.87L566.03 500.74L565.65 500.63L565.28 500.52L564.9 500.42L564.52 500.33L564.13 500.26L563.75 500.19L563.36 500.13L562.97 500.08L562.57 500.05L562.18 500.02L561.78 500.01L561.38 500L540 500L540 467.5L539.99 466.88L539.95 466.27L539.89 465.67L539.8 465.07L539.69 464.48L539.56 463.9L539.41 463.33L539.23 462.76L539.04 462.21L538.82 461.67L538.58 461.13L538.32 460.61L538.05 460.1L537.75 459.6L537.43 459.12L537.1 458.65L536.75 458.19L536.38 457.74L536 457.31L535.6 456.9L535.19 456.5L534.76 456.12L534.31 455.75L533.85 455.4L533.38 455.07L532.9 454.75L532.4 454.45L531.89 454.18L531.37 453.92L530.83 453.68L530.29 453.46L529.74 453.27L529.17 453.09L528.6 452.94L528.02 452.81L527.43 452.7L526.83 452.61L526.23 452.55L525.62 452.51L525 452.5L515 452.5L514.38 452.51Z" id="abLk2KpOG"></path><path d="M419.75 630L420 630L420 629.75L419.75 630Z" id="b1a6RFKCXO"></path><path d="M570 384.75L569.75 385L570 385L570 384.75Z" id="b18n5ugKKF"></path><path d="M358.79 24.65C349.35 15.21 336.79 10 323.44 10C303.09 10 140.34 10 120 10C92.43 10 70 32.43 70 60C70 112 70 528 70 580C70 607.57 92.43 630 120 630C139.98 630 239.9 630 419.75 630L399.75 610C231.9 610 138.65 610 120 610C103.46 610 90 596.54 90 580C90 528 90 112 90 60C90 43.46 103.46 30 120 30C140.34 30 303.09 30 323.44 30C331.45 30 338.98 33.12 344.65 38.78C364.3 58.44 521.56 215.7 541.21 235.36C546.79 240.94 550 248.67 550 256.57C550 263.78 550 299.84 550 364.75L570 384.75C570 307.84 570 265.11 570 256.57C570 243.22 564.8 230.66 555.36 221.22C516.04 181.9 378.44 44.3 358.79 24.65Z" id="f8GFfuGAkf"></path><path d="M569.75 385L570 384.75L550 364.75" id="a1zGtMF8WL"></path></defs><g><g><g><use xlink:href="#a1zgafKNnM" opacity="1" fill="#007732" fill-opacity="1"></use><g><use xlink:href="#a1zgafKNnM" opacity="1" fill-opacity="0" stroke="#000000" stroke-width="1" stroke-opacity="0"></use></g></g><g><use xlink:href="#abLk2KpOG" opacity="1" fill="#007732" fill-opacity="1"></use><g><use xlink:href="#abLk2KpOG" opacity="1" fill-opacity="0" stroke="#000000" stroke-width="1" stroke-opacity="0"></use></g></g><g><use xlink:href="#b1a6RFKCXO" opacity="1" fill="#ff9a30" fill-opacity="1"></use><g><use xlink:href="#b1a6RFKCXO" opacity="1" fill-opacity="0" stroke="#000000" stroke-width="1" stroke-opacity="0"></use></g></g><g><use xlink:href="#b18n5ugKKF" opacity="1" fill="#ff9a30" fill-opacity="1"></use><g><use xlink:href="#b18n5ugKKF" opacity="1" fill-opacity="0" stroke="#000000" stroke-width="1" stroke-opacity="0"></use></g></g><g><use xlink:href="#f8GFfuGAkf" opacity="1" fill="#007732" fill-opacity="1"></use><g><use xlink:href="#f8GFfuGAkf" opacity="1" fill-opacity="0" stroke="#000000" stroke-width="1" stroke-opacity="0"></use></g></g><g><use xlink:href="#a1zGtMF8WL" opacity="1" fill="#ffffff" fill-opacity="1"></use><g><use xlink:href="#a1zGtMF8WL" opacity="1" fill-opacity="0" stroke="#000000" stroke-width="1" stroke-opacity="0"></use></g></g></g></g></svg>