<?xml version="1.0" encoding="UTF-8" standalone="no"?>
<!DOCTYPE svg PUBLIC "-//W3C//DTD SVG 1.1//EN" "http://www.w3.org/Graphics/SVG/1.1/DTD/svg11.dtd">
<svg version="1.1" xmlns="http://www.w3.org/2000/svg" xmlns:xlink="http://www.w3.org/1999/xlink" preserveAspectRatio="xMidYMid meet" viewBox="0 0 640 640" width="100" height="100"><defs><path d="M307.12 205.14L307.72 205.15L308.32 205.19L308.9 205.25L309.47 205.33L310.03 205.44L310.58 205.57L311.12 205.72L311.65 205.89L312.17 206.08L312.68 206.29L313.17 206.51L313.66 206.76L314.13 207.02L314.59 207.3L315.05 207.6L315.49 207.91L315.92 208.23L316.34 208.57L316.75 208.92L317.15 209.29L317.54 209.67L317.92 210.05L318.29 210.45L318.64 210.86L318.99 211.27L319.33 211.7L319.66 212.13L319.97 212.57L320.28 213.01L320.58 213.46L320.86 213.92L321.14 214.38L321.41 214.84L321.66 215.3L321.91 215.77L322.15 216.24L322.38 216.71L322.59 217.18L322.8 217.65L323.65 219.85L323.7 220L323.75 220.15L323.8 220.29L323.85 220.43L323.89 220.56L323.94 220.7L323.98 220.82L324.02 220.95L324.06 221.07L324.1 221.19L324.14 221.31L324.17 221.43L324.21 221.54L324.24 221.66L324.28 221.77L324.31 221.89L324.34 222L324.37 222.11L324.4 222.23L324.43 222.34L324.46 222.46L324.49 222.58L324.52 222.7L324.54 222.82L324.57 222.94L324.6 223.06L324.62 223.19L324.65 223.32L324.67 223.46L324.7 223.6L324.72 223.74L324.75 223.89L324.77 224.04L324.8 224.19L324.82 224.36L324.85 224.52L324.87 224.69L324.9 224.87L324.92 225.06L324.95 225.25L325.12 226.75L325.25 228.38L325.33 230.14L325.38 232.01L325.38 233.98L325.35 236.05L325.29 238.2L325.19 240.44L325.06 242.74L324.91 245.1L324.72 247.52L324.52 249.98L324.29 252.48L324.05 255L323.78 257.53L323.5 260.08L323.21 262.62L322.91 265.16L322.59 267.67L322.28 270.16L321.95 272.62L321.62 275.03L321.3 277.38L320.97 279.67L320.65 281.9L320.33 284.04L320.02 286.09L319.72 288.05L319.43 289.9L319.16 291.64L318.9 293.25L318.66 294.73L318.44 296.07L318.24 297.26L318.07 298.29L317.92 299.15L317.81 299.84L317.72 300.34L317.67 300.65L317.65 300.75L317.61 300.91L317.57 301.06L317.54 301.22L317.5 301.38L317.46 301.54L317.42 301.69L317.39 301.85L317.35 302.01L317.31 302.16L317.27 302.32L317.24 302.48L317.2 302.64L317.16 302.79L317.12 302.95L317.08 303.11L317.04 303.27L317 303.43L316.97 303.59L316.93 303.75L316.89 303.91L316.85 304.07L316.81 304.23L316.77 304.39L316.73 304.55L316.69 304.71L316.65 304.88L316.61 305.04L316.57 305.21L316.52 305.37L316.48 305.54L316.44 305.71L316.4 305.87L316.36 306.04L316.31 306.21L316.27 306.38L316.23 306.55L316.18 306.73L316.14 306.9L316.09 307.07L316.05 307.25L316.75 309.13L317.47 311L318.21 312.87L318.97 314.72L319.75 316.57L320.55 318.4L321.37 320.22L322.21 322.03L323.07 323.83L323.94 325.62L324.83 327.39L325.75 329.15L326.68 330.9L327.62 332.64L328.59 334.36L329.57 336.06L330.56 337.76L331.58 339.43L332.61 341.09L333.66 342.74L334.72 344.37L335.8 345.98L336.89 347.57L338 349.15L339.12 350.71L340.26 352.25L341.41 353.77L342.58 355.28L343.76 356.76L344.96 358.23L346.16 359.67L347.38 361.09L348.62 362.5L349.87 363.88L351.12 365.24L352.4 366.58L353.68 367.89L354.97 369.19L356.28 370.45L357.6 371.7L358.09 372.16L358.6 372.61L359.1 373.07L359.62 373.51L360.14 373.96L360.66 374.4L361.19 374.84L361.73 375.27L362.27 375.7L362.82 376.12L363.37 376.55L363.93 376.97L364.49 377.38L365.05 377.8L365.62 378.21L366.19 378.61L366.77 379.02L367.35 379.42L367.93 379.82L368.52 380.21L369.11 380.6L369.7 380.99L370.29 381.38L370.89 381.77L371.49 382.15L372.09 382.53L372.69 382.9L373.3 383.28L373.9 383.65L374.51 384.02L375.12 384.39L375.73 384.75L376.34 385.11L376.95 385.48L377.55 385.83L378.16 386.19L378.77 386.55L379.38 386.9L379.99 387.25L380.6 387.6L381.96 387.41L383.31 387.23L384.66 387.05L386 386.87L387.34 386.7L388.68 386.54L390.01 386.38L391.34 386.23L392.66 386.08L393.98 385.93L395.29 385.79L396.59 385.66L397.89 385.53L399.19 385.4L400.48 385.28L401.76 385.17L403.04 385.06L404.31 384.96L405.57 384.86L406.82 384.76L408.07 384.67L409.32 384.59L410.55 384.51L411.78 384.44L412.99 384.37L414.2 384.3L415.41 384.24L416.6 384.19L417.79 384.14L418.96 384.1L420.13 384.06L421.29 384.03L422.44 384L423.58 383.98L424.71 383.96L425.83 383.95L426.93 383.94L428.03 383.94L429.12 383.94L430.2 383.95L431.77 383.98L433.31 384.02L434.83 384.07L436.31 384.13L437.77 384.2L439.2 384.28L440.61 384.38L441.99 384.48L443.34 384.6L444.66 384.73L445.96 384.87L447.22 385.02L448.46 385.18L449.68 385.35L450.86 385.53L452.02 385.73L453.15 385.93L454.25 386.15L455.33 386.37L456.37 386.61L457.39 386.86L458.39 387.12L459.35 387.39L460.29 387.68L461.19 387.97L462.07 388.27L462.93 388.59L463.75 388.92L464.55 389.25L465.31 389.6L466.05 389.96L466.77 390.33L467.45 390.72L468.11 391.11L468.73 391.51L469.33 391.93L469.91 392.35L470.45 392.79L470.96 393.24L471.45 393.7L471.61 393.86L471.78 394.03L471.94 394.2L472.1 394.37L472.26 394.55L472.42 394.73L472.58 394.92L472.74 395.1L472.89 395.29L473.05 395.48L473.2 395.68L473.35 395.87L473.49 396.07L473.64 396.27L473.78 396.47L473.92 396.68L474.05 396.88L474.19 397.09L474.32 397.29L474.44 397.5L474.57 397.71L474.69 397.92L474.8 398.13L474.91 398.34L475.02 398.55L475.12 398.76L475.22 398.97L475.32 399.18L475.41 399.38L475.49 399.59L475.57 399.8L475.65 400.01L475.72 400.21L475.78 400.41L475.84 400.62L475.9 400.82L475.94 401.02L475.98 401.21L476.02 401.41L476.05 401.6L476.13 402.25L476.2 402.9L476.26 403.55L476.32 404.2L476.37 404.85L476.41 405.49L476.45 406.14L476.47 406.78L476.49 407.42L476.5 408.05L476.5 408.69L476.49 409.32L476.47 409.95L476.45 410.57L476.41 411.19L476.37 411.81L476.32 412.42L476.25 413.03L476.18 413.63L476.1 414.23L476.01 414.83L475.91 415.42L475.8 416L475.68 416.58L475.54 417.15L475.4 417.72L475.25 418.28L475.09 418.84L474.91 419.39L474.73 419.93L474.53 420.47L474.33 421L474.11 421.52L473.88 422.03L473.64 422.54L473.38 423.04L473.12 423.53L472.84 424.01L472.55 424.48L472.25 424.95L472.09 425.18L471.93 425.41L471.76 425.63L471.58 425.86L471.4 426.07L471.22 426.29L471.03 426.5L470.84 426.71L470.64 426.92L470.44 427.12L470.24 427.32L470.03 427.51L469.81 427.71L469.6 427.89L469.37 428.08L469.15 428.26L468.92 428.44L468.68 428.61L468.45 428.78L468.21 428.95L467.96 429.11L467.71 429.27L467.46 429.43L467.21 429.58L466.95 429.73L466.69 429.87L466.42 430.01L466.15 430.15L465.88 430.28L465.61 430.41L465.33 430.53L465.05 430.65L464.76 430.76L464.48 430.88L464.19 430.98L463.89 431.08L463.6 431.18L463.3 431.28L463 431.37L462.7 431.45L462.5 431.5L462.31 431.55L462.1 431.6L461.9 431.65L461.69 431.7L461.49 431.74L461.28 431.79L461.06 431.83L460.85 431.87L460.63 431.91L460.41 431.95L460.19 431.99L459.96 432.02L459.74 432.06L459.51 432.09L459.28 432.12L459.04 432.15L458.81 432.18L458.57 432.21L458.33 432.24L458.09 432.26L457.85 432.29L457.6 432.31L457.35 432.33L457.1 432.35L456.85 432.37L456.59 432.39L456.34 432.41L456.08 432.42L455.82 432.43L455.55 432.45L455.29 432.46L455.02 432.47L454.75 432.48L454.48 432.48L454.21 432.49L453.94 432.49L453.66 432.5L453.38 432.5L453.1 432.5L451.49 432.48L449.85 432.42L448.15 432.32L446.42 432.19L444.65 432.01L442.84 431.8L440.99 431.55L439.11 431.27L437.2 430.95L435.26 430.6L433.29 430.21L431.29 429.79L429.27 429.33L427.22 428.85L425.15 428.33L423.06 427.78L420.96 427.19L418.83 426.58L416.69 425.94L414.54 425.27L412.38 424.57L410.21 423.84L408.03 423.09L405.84 422.3L403.65 421.5L401.46 420.66L399.26 419.8L397.07 418.92L394.88 418.01L392.69 417.08L390.51 416.13L388.34 415.15L386.18 414.15L384.03 413.13L381.89 412.09L379.76 411.03L377.66 409.95L375.57 408.85L373.5 407.74L371.45 406.6L368.77 407.01L366.07 407.43L363.35 407.87L360.61 408.32L357.86 408.79L355.1 409.27L352.32 409.77L349.53 410.29L346.73 410.82L343.92 411.36L341.1 411.92L338.27 412.49L335.44 413.08L332.59 413.67L329.74 414.29L326.89 414.91L324.03 415.55L321.17 416.2L318.31 416.86L315.44 417.54L312.58 418.22L309.72 418.92L306.86 419.63L304 420.35L301.14 421.08L298.29 421.83L295.45 422.58L292.61 423.34L289.78 424.11L286.96 424.9L284.14 425.69L281.34 426.49L278.55 427.3L275.77 428.12L273 428.94L270.25 429.78L267.51 430.62L264.79 431.47L262.09 432.33L259.4 433.2L257.09 437.19L254.82 441.08L252.58 444.85L250.36 448.51L248.18 452.06L246.03 455.5L243.9 458.83L241.81 462.06L239.74 465.18L237.7 468.18L235.68 471.09L233.69 473.88L231.73 476.57L229.79 479.16L227.88 481.64L225.99 484.02L224.13 486.29L222.29 488.46L220.47 490.53L218.67 492.5L216.9 494.37L215.15 496.13L213.42 497.8L211.7 499.36L210.01 500.83L208.34 502.19L206.68 503.46L205.05 504.64L203.43 505.71L201.83 506.69L200.24 507.57L198.68 508.36L197.12 509.05L195.58 509.65L194.06 510.16L192.55 510.57L191.06 510.89L189.58 511.12L188.11 511.25L186.65 511.3L186.38 511.3L186.11 511.29L185.84 511.29L185.57 511.27L185.3 511.26L185.03 511.24L184.77 511.22L184.5 511.2L184.23 511.17L183.96 511.14L183.69 511.11L183.43 511.07L183.16 511.03L182.89 510.99L182.63 510.94L182.36 510.9L182.1 510.84L181.83 510.79L181.57 510.73L181.31 510.67L181.04 510.6L180.78 510.54L180.52 510.47L180.26 510.39L180 510.32L179.73 510.24L179.47 510.15L179.21 510.07L178.96 509.98L178.7 509.89L178.44 509.79L178.18 509.69L177.93 509.59L177.67 509.49L177.42 509.38L177.16 509.27L176.91 509.16L176.65 509.04L176.4 508.92L176.15 508.8L168.45 504.9L168.09 504.69L167.75 504.46L167.43 504.23L167.12 503.98L166.82 503.73L166.54 503.46L166.27 503.19L166.02 502.9L165.78 502.61L165.55 502.31L165.34 502L165.14 501.68L164.95 501.36L164.78 501.03L164.61 500.69L164.46 500.35L164.32 500L164.2 499.65L164.08 499.29L163.98 498.93L163.88 498.57L163.8 498.2L163.72 497.83L163.66 497.46L163.61 497.08L163.57 496.7L163.53 496.33L163.51 495.95L163.49 495.57L163.49 495.19L163.49 494.81L163.5 494.43L163.52 494.06L163.54 493.68L163.58 493.31L163.62 492.94L163.67 492.58L163.72 492.21L163.78 491.85L163.85 491.5L164.1 490.4L164.41 489.28L164.78 488.15L165.19 487.01L165.67 485.86L166.19 484.69L166.77 483.52L167.4 482.33L168.09 481.14L168.82 479.93L169.61 478.72L170.44 477.49L171.33 476.27L172.26 475.03L173.24 473.79L174.28 472.54L175.35 471.28L176.48 470.02L177.65 468.76L178.87 467.49L180.13 466.22L181.44 464.95L182.79 463.68L184.19 462.4L185.62 461.12L187.11 459.85L188.63 458.57L190.19 457.29L191.8 456.02L193.44 454.75L195.13 453.48L196.85 452.21L198.62 450.95L200.42 449.69L202.26 448.43L204.14 447.18L206.05 445.94L208 444.7L209.98 443.47L212 442.25L212.26 442.1L212.56 441.93L212.89 441.74L213.25 441.53L213.64 441.31L214.07 441.08L214.51 440.83L214.99 440.57L215.48 440.3L215.99 440.01L216.52 439.72L217.07 439.43L217.62 439.12L218.19 438.82L218.77 438.5L219.35 438.19L219.94 437.87L220.53 437.56L221.11 437.24L221.7 436.93L222.28 436.61L222.85 436.31L223.42 436L223.97 435.71L224.51 435.42L225.03 435.14L225.54 434.87L226.02 434.61L226.48 434.37L226.92 434.14L227.33 433.92L227.71 433.72L228.06 433.53L228.38 433.36L228.66 433.21L228.9 433.09L229.1 432.98L229.27 432.9L229.38 432.84L229.45 432.8L237.4 428.6L237.98 427.61L238.57 426.6L239.16 425.59L239.75 424.57L240.34 423.54L240.94 422.5L241.54 421.45L242.14 420.39L242.75 419.32L243.36 418.24L243.97 417.16L244.58 416.06L245.2 414.96L245.82 413.84L246.44 412.72L247.07 411.59L247.7 410.44L248.33 409.29L248.97 408.13L249.61 406.96L250.25 405.77L250.89 404.58L251.54 403.38L252.19 402.17L252.85 400.95L253.5 399.72L254.17 398.48L254.83 397.23L255.5 395.97L256.17 394.7L256.84 393.42L257.52 392.13L258.2 390.83L258.88 389.52L259.57 388.2L260.26 386.87L260.95 385.53L261.65 384.18L262.35 382.82L263.05 381.45L264.2 379.2L264.87 377.89L265.54 376.57L266.22 375.24L266.9 373.9L267.59 372.55L268.28 371.2L268.97 369.84L269.66 368.47L270.35 367.09L271.05 365.71L271.75 364.32L272.45 362.93L273.15 361.53L273.85 360.12L274.55 358.71L275.25 357.29L275.95 355.87L276.65 354.44L277.35 353.01L278.04 351.57L278.74 350.13L279.43 348.68L280.12 347.23L280.81 345.78L281.5 344.33L282.18 342.87L282.86 341.41L283.54 339.94L284.21 338.47L284.88 337.01L285.54 335.53L286.2 334.06L286.85 332.59L287.5 331.11L288.14 329.64L288.78 328.16L289.41 326.68L290.03 325.21L290.64 323.73L291.25 322.25L294.15 315.25L293.32 312.04L292.5 308.87L291.71 305.74L290.93 302.64L290.18 299.58L289.45 296.56L288.75 293.58L288.06 290.63L287.4 287.72L286.77 284.85L286.16 282.01L285.58 279.22L285.03 276.46L284.5 273.74L284 271.06L283.53 268.41L283.09 265.81L282.68 263.24L282.3 260.71L281.96 258.23L281.64 255.78L281.36 253.36L281.11 250.99L280.9 248.66L280.72 246.37L280.58 244.12L280.47 241.9L280.4 239.73L280.37 237.59L280.38 235.5L280.42 233.45L280.51 231.44L280.63 229.46L280.8 227.53L281.01 225.64L281.26 223.79L281.55 221.98L281.89 220.21L282.27 218.49L282.7 216.8L282.86 216.28L283.04 215.76L283.24 215.25L283.46 214.76L283.7 214.27L283.96 213.79L284.24 213.32L284.53 212.87L284.84 212.42L285.17 211.98L285.52 211.56L285.89 211.14L286.27 210.74L286.66 210.35L287.08 209.97L287.5 209.6L287.95 209.25L288.4 208.9L288.88 208.57L289.36 208.26L289.86 207.95L290.38 207.66L290.9 207.39L291.44 207.12L291.99 206.87L292.56 206.64L293.13 206.42L293.72 206.22L294.31 206.03L294.92 205.85L295.54 205.69L296.17 205.55L296.8 205.42L297.45 205.31L298.1 205.22L298.77 205.14L299.44 205.08L300.12 205.04L300.81 205.01L301.5 205L301.6 205L306.5 205.15L307.12 205.14ZM227.37 444.75L227.06 445.05L226.75 445.36L226.43 445.66L226.12 445.96L225.8 446.25L225.49 446.55L225.18 446.84L224.88 447.13L224.58 447.41L224.28 447.69L223.99 447.96L223.7 448.23L223.42 448.49L223.15 448.74L222.88 448.99L222.62 449.23L222.37 449.45L222.13 449.67L221.9 449.88L221.68 450.08L221.47 450.26L221.27 450.44L221.08 450.6L220.91 450.75L220.75 450.88L220.6 451L218.41 452.82L216.28 454.65L214.2 456.49L212.17 458.34L210.2 460.2L208.28 462.05L206.42 463.91L204.62 465.75L202.88 467.59L201.2 469.42L199.57 471.23L198.02 473.02L196.52 474.8L195.09 476.54L193.73 478.26L192.43 479.95L191.2 481.61L190.04 483.23L188.95 484.8L187.93 486.34L186.98 487.82L186.11 489.26L185.31 490.64L184.58 491.97L183.93 493.24L183.36 494.44L182.87 495.58L182.45 496.65L183.49 496.15L184.56 495.57L185.68 494.92L186.83 494.18L188.03 493.36L189.26 492.45L190.54 491.46L191.86 490.37L193.22 489.18L194.62 487.89L196.07 486.5L197.57 485.01L199.1 483.4L200.69 481.69L202.32 479.86L204 477.91L205.72 475.84L207.49 473.64L209.31 471.32L211.19 468.86L213.11 466.28L215.08 463.55L217.1 460.69L219.17 457.68L221.3 454.52L223.48 451.22L225.71 447.76L228 444.15L227.69 444.45L227.37 444.75ZM429.47 401.35L428.68 401.36L427.89 401.36L427.09 401.37L426.28 401.39L425.46 401.41L424.64 401.43L423.81 401.45L422.97 401.47L422.12 401.5L421.27 401.53L420.41 401.57L419.54 401.61L418.66 401.65L417.78 401.69L416.89 401.74L416 401.78L415.1 401.84L414.19 401.89L413.27 401.95L412.35 402.01L411.42 402.07L410.49 402.13L409.55 402.2L411.98 403.24L414.35 404.24L416.66 405.21L418.92 406.14L421.13 407.03L423.28 407.89L425.39 408.71L427.44 409.48L429.44 410.22L431.4 410.91L433.31 411.56L435.18 412.17L437.01 412.73L438.79 413.25L440.53 413.72L442.23 414.15L443.89 414.53L445.51 414.86L447.1 415.15L448.66 415.38L450.18 415.56L451.67 415.69L453.12 415.77L454.55 415.8L455 415.8L455.46 415.79L455.94 415.77L456.44 415.74L456.94 415.71L457.45 415.67L457.97 415.63L458.5 415.58L459.02 415.52L459.54 415.45L460.06 415.38L460.58 415.31L461.08 415.22L461.57 415.14L462.05 415.04L462.52 414.94L462.97 414.84L463.4 414.72L463.8 414.61L464.18 414.49L464.53 414.36L464.85 414.23L465.14 414.09L465.4 413.95L465.63 413.78L465.84 413.56L466.02 413.3L466.16 413.01L466.27 412.67L466.33 412.31L466.35 411.92L466.32 411.51L466.24 411.07L466.1 410.62L465.91 410.15L465.64 409.67L465.31 409.18L464.91 408.68L464.43 408.19L463.88 407.69L463.24 407.2L462.51 406.71L461.69 406.24L460.78 405.78L459.77 405.34L458.65 404.92L457.43 404.52L456.1 404.15L454.75 403.81L453.47 403.5L452.25 403.21L451.1 402.95L450 402.72L448.95 402.51L447.94 402.32L446.96 402.16L446.01 402.01L445.08 401.88L444.16 401.77L443.25 401.68L442.34 401.6L441.41 401.54L440.48 401.48L439.52 401.44L438.53 401.41L437.51 401.39L436.44 401.37L435.33 401.36L434.16 401.35L432.93 401.35L431.63 401.35L430.25 401.35L429.47 401.35ZM304.5 341.67L304.09 342.72L303.67 343.79L303.24 344.86L302.8 345.95L302.36 347.05L301.91 348.16L301.45 349.28L300.98 350.42L300.5 351.57L300.01 352.73L299.52 353.9L299.01 355.09L298.49 356.29L297.96 357.5L297.43 358.73L296.88 359.97L296.32 361.23L295.75 362.5L295.17 363.78L294.58 365.08L293.97 366.4L293.36 367.72L292.73 369.07L292.09 370.42L291.43 371.8L290.77 373.18L290.09 374.59L289.4 376.01L288.69 377.44L287.97 378.89L287.24 380.36L286.49 381.85L285.73 383.35L284.95 384.86L284.16 386.4L283.36 387.95L282.54 389.51L281.7 391.1L281.36 391.75L281.01 392.39L280.67 393.04L280.32 393.68L279.98 394.32L279.64 394.96L279.29 395.6L278.95 396.24L278.61 396.87L278.27 397.5L277.93 398.13L277.59 398.76L277.25 399.39L276.91 400.02L276.57 400.64L276.23 401.26L275.89 401.88L275.56 402.5L275.22 403.12L274.88 403.74L274.54 404.35L274.21 404.96L273.87 405.57L273.54 406.18L273.2 406.79L272.87 407.4L272.54 408L272.2 408.6L271.87 409.2L271.54 409.8L271.21 410.4L270.88 411L270.55 411.59L270.22 412.18L269.89 412.77L269.56 413.36L269.23 413.95L268.9 414.53L268.58 415.12L268.25 415.7L270.04 415.02L271.84 414.34L273.66 413.67L275.49 413L277.33 412.34L279.18 411.69L281.05 411.04L282.93 410.4L284.82 409.76L286.72 409.13L288.64 408.51L290.57 407.89L292.52 407.28L294.48 406.67L296.45 406.07L298.43 405.48L300.43 404.89L302.44 404.3L304.47 403.72L306.51 403.15L308.56 402.58L310.63 402.02L312.71 401.47L314.81 400.91L316.92 400.37L319.04 399.83L321.18 399.3L323.33 398.77L325.5 398.25L327.69 397.73L329.88 397.22L332.1 396.71L334.32 396.21L336.57 395.71L338.83 395.22L341.1 394.74L343.39 394.26L345.69 393.78L348.01 393.31L350.35 392.85L350.19 392.73L350.04 392.6L349.88 392.48L349.72 392.36L349.56 392.23L349.41 392.11L349.25 391.98L349.1 391.86L348.94 391.74L348.79 391.61L348.63 391.49L348.47 391.37L348.32 391.24L348.17 391.12L348.01 391L347.86 390.87L347.7 390.75L347.55 390.63L347.4 390.5L347.24 390.38L347.09 390.26L346.94 390.14L346.79 390.01L346.63 389.89L346.48 389.77L346.33 389.65L346.18 389.52L346.03 389.4L345.88 389.28L345.73 389.16L345.58 389.04L345.43 388.92L345.28 388.79L345.13 388.67L344.99 388.55L344.84 388.43L344.69 388.31L344.54 388.19L344.4 388.07L344.25 387.95L343.1 386.97L341.96 385.98L340.83 384.97L339.71 383.95L338.6 382.92L337.5 381.88L336.4 380.83L335.31 379.76L334.23 378.69L333.16 377.6L332.1 376.5L331.05 375.38L330.01 374.26L328.97 373.12L327.95 371.98L326.93 370.82L325.92 369.64L324.93 368.46L323.94 367.27L322.96 366.06L321.98 364.85L321.02 363.62L320.07 362.38L319.13 361.13L318.19 359.86L317.27 358.59L316.35 357.31L315.44 356.01L314.55 354.7L313.66 353.38L312.78 352.06L311.91 350.71L311.05 349.36L310.2 348L309.36 346.63L308.53 345.24L307.71 343.85L306.89 342.44L306.09 341.03L305.3 339.6L304.9 340.63L304.5 341.67ZM304.15 215.37L303.88 215.82L303.64 216.42L303.43 217.15L303.23 218.01L303.06 218.97L302.9 220.02L302.77 221.15L302.65 222.34L302.54 223.58L302.46 224.84L302.38 226.13L302.32 227.41L302.27 228.67L302.23 229.91L302.2 231.1L302.18 232.23L302.16 233.28L302.15 234.24L302.15 235.1L302.14 235.83L302.15 236.43L302.15 236.88L302.15 237.15L302.15 237.25L302.16 238.62L302.18 240.04L302.22 241.51L302.27 243.02L302.34 244.56L302.42 246.14L302.52 247.75L302.64 249.38L302.77 251.03L302.91 252.7L303.07 254.38L303.25 256.07L303.44 257.76L303.65 259.44L303.88 261.13L304.12 262.8L304.37 264.45L304.64 266.09L304.93 267.71L305.24 269.29L305.56 270.85L305.89 272.37L306.24 273.85L306.61 275.28L307 276.67L307.4 278L307.89 277.11L308.37 276.19L308.83 275.24L309.29 274.27L309.74 273.28L310.18 272.26L310.6 271.21L311.01 270.13L311.4 269.03L311.78 267.9L312.14 266.73L312.48 265.54L312.81 264.32L313.11 263.06L313.39 261.78L313.65 260.46L313.89 259.11L314.1 257.72L314.28 256.3L314.44 254.85L314.58 253.36L314.68 251.83L314.76 250.27L314.8 248.66L314.82 247.03L314.8 245.35L314.75 243.65L314.67 241.95L314.57 240.25L314.43 238.56L314.27 236.88L314.08 235.23L313.86 233.59L313.62 231.99L313.35 230.43L313.05 228.91L312.72 227.44L312.37 226.02L311.99 224.66L311.58 223.37L311.15 222.15L310.69 221L310.21 219.94L309.7 218.96L309.17 218.08L308.61 217.3L308.03 216.62L307.42 216.05L306.79 215.6L306.13 215.27L305.45 215.07L304.75 215L304.43 215.1L304.15 215.37Z" id="a2SgDkLAT"></path><path d="M529.84 400.4L534.68 400.89L539.46 401.57L544.18 402.44L548.84 403.49L553.42 404.72L557.93 406.12L562.36 407.69L566.71 409.43L570.97 411.33L575.15 413.39L579.23 415.61L583.21 417.98L587.09 420.49L590.87 423.15L594.54 425.95L598.1 428.89L601.53 431.95L604.85 435.15L608.05 438.47L611.11 441.9L614.05 445.46L616.85 449.13L619.51 452.91L622.02 456.79L624.39 460.77L626.61 464.85L628.67 469.03L630.57 473.29L632.31 477.64L633.88 482.07L635.28 486.58L636.51 491.16L637.56 495.82L638.43 500.54L639.11 505.32L639.6 510.16L639.9 515.05L640 520L639.9 524.95L639.6 529.84L639.11 534.68L638.43 539.46L637.56 544.18L636.51 548.84L635.28 553.42L633.88 557.93L632.31 562.36L630.57 566.71L628.67 570.97L626.61 575.15L624.39 579.23L622.02 583.21L619.51 587.09L616.85 590.87L614.05 594.54L611.11 598.1L608.05 601.53L604.85 604.85L601.53 608.05L598.1 611.11L594.54 614.05L590.87 616.85L587.09 619.51L583.21 622.02L579.23 624.39L575.15 626.61L570.97 628.67L566.71 630.57L562.36 632.31L557.93 633.88L553.42 635.28L548.84 636.51L544.18 637.56L539.46 638.43L534.68 639.11L529.84 639.6L524.95 639.9L520 640L515.05 639.9L510.16 639.6L505.32 639.11L500.54 638.43L495.82 637.56L491.16 636.51L486.58 635.28L482.07 633.88L477.64 632.31L473.29 630.57L469.03 628.67L464.85 626.61L460.77 624.39L456.79 622.02L452.91 619.51L449.13 616.85L445.46 614.05L441.9 611.11L438.47 608.05L435.15 604.85L431.95 601.53L428.89 598.1L425.95 594.54L423.15 590.87L420.49 587.09L417.98 583.21L415.61 579.23L413.39 575.15L411.33 570.97L409.43 566.71L407.69 562.36L406.12 557.93L404.72 553.42L403.49 548.84L402.44 544.18L401.57 539.46L400.89 534.68L400.4 529.84L400.1 524.95L400 520L400.1 515.05L400.4 510.16L400.89 505.32L401.57 500.54L402.44 495.82L403.49 491.16L404.72 486.58L406.12 482.07L407.69 477.64L409.43 473.29L411.33 469.03L413.39 464.85L415.61 460.77L417.98 456.79L420.49 452.91L423.15 449.13L425.95 445.46L428.89 441.9L431.95 438.47L435.15 435.15L438.47 431.95L441.9 428.89L445.46 425.95L449.13 423.15L452.91 420.49L456.79 417.98L460.77 415.61L464.85 413.39L469.03 411.33L473.29 409.43L477.64 407.69L482.07 406.12L486.58 404.72L491.16 403.49L495.82 402.44L500.54 401.57L505.32 400.89L510.16 400.4L515.05 400.1L520 400L524.95 400.1L529.84 400.4ZM514.38 452.51L513.77 452.55L513.17 452.61L512.57 452.7L511.98 452.81L511.4 452.94L510.83 453.09L510.26 453.27L509.71 453.46L509.17 453.68L508.63 453.92L508.11 454.18L507.6 454.45L507.1 454.75L506.62 455.07L506.15 455.4L505.69 455.75L505.24 456.12L504.81 456.5L504.4 456.9L504 457.31L503.62 457.74L503.25 458.19L502.9 458.65L502.57 459.12L502.25 459.6L501.95 460.1L501.68 460.61L501.42 461.13L501.18 461.67L500.96 462.21L500.77 462.76L500.59 463.33L500.44 463.9L500.31 464.48L500.2 465.07L500.11 465.67L500.05 466.27L500.01 466.88L500 467.5L500 500L478.62 500L478.22 500.01L477.82 500.03L477.43 500.05L477.03 500.09L476.64 500.14L476.25 500.19L475.86 500.26L475.48 500.34L475.1 500.43L474.72 500.52L474.34 500.63L473.97 500.75L473.6 500.87L473.24 501.01L472.88 501.15L472.52 501.31L472.17 501.47L471.82 501.64L471.47 501.82L471.13 502.01L470.8 502.21L470.47 502.42L470.15 502.63L469.83 502.85L469.52 503.09L469.21 503.33L468.91 503.57L468.62 503.83L468.33 504.09L468.05 504.36L467.77 504.64L467.51 504.93L467.25 505.22L466.99 505.52L466.75 505.83L466.51 506.15L466.28 506.47L466.06 506.8L465.84 507.13L465.64 507.48L465.44 507.82L465.26 508.17L465.08 508.53L464.92 508.89L464.76 509.25L464.62 509.62L464.48 509.98L464.36 510.36L464.24 510.73L464.13 511.11L464.04 511.48L463.95 511.86L463.88 512.25L463.81 512.63L463.75 513.01L463.71 513.4L463.67 513.79L463.64 514.17L463.63 514.56L463.62 514.95L463.63 515.34L463.64 515.73L463.66 516.11L463.7 516.5L463.74 516.89L463.79 517.27L463.86 517.66L463.93 518.04L464.01 518.42L464.11 518.8L464.21 519.18L464.32 519.55L464.45 519.92L464.58 520.29L464.72 520.66L464.88 521.03L465.04 521.39L465.21 521.74L465.4 522.1L465.59 522.44L507.32 580.52L507.53 580.84L507.75 581.15L507.97 581.46L508.2 581.76L508.44 582.06L508.68 582.35L508.94 582.63L509.2 582.9L509.46 583.17L509.73 583.43L510.01 583.68L510.29 583.93L510.58 584.17L510.88 584.4L511.18 584.63L511.48 584.84L511.79 585.05L512.11 585.25L512.43 585.44L512.76 585.63L513.09 585.81L513.42 585.97L513.76 586.13L514.1 586.29L514.45 586.43L514.8 586.57L515.15 586.69L515.51 586.81L515.87 586.92L516.23 587.02L516.6 587.11L516.97 587.19L517.34 587.26L517.71 587.32L518.09 587.38L518.47 587.42L518.85 587.46L519.23 587.48L519.61 587.5L520 587.5L520.39 587.5L520.77 587.48L521.15 587.46L521.53 587.42L521.91 587.38L522.29 587.32L522.66 587.26L523.03 587.19L523.4 587.11L523.77 587.02L524.13 586.92L524.49 586.81L524.85 586.69L525.2 586.56L525.55 586.43L525.9 586.29L526.24 586.13L526.58 585.97L526.91 585.81L527.24 585.63L527.57 585.44L527.89 585.25L528.21 585.05L528.52 584.84L528.82 584.62L529.12 584.4L529.42 584.17L529.71 583.93L529.99 583.68L530.27 583.43L530.54 583.17L530.81 582.9L531.07 582.62L531.32 582.34L531.56 582.05L531.8 581.76L532.03 581.46L532.26 581.15L532.48 580.83L532.69 580.51L573.85 523.32L574.41 522.44L574.6 522.09L574.79 521.74L574.96 521.38L575.12 521.02L575.28 520.66L575.42 520.29L575.55 519.92L575.68 519.55L575.79 519.17L575.89 518.8L575.99 518.42L576.07 518.04L576.14 517.65L576.21 517.27L576.26 516.89L576.3 516.5L576.34 516.11L576.36 515.72L576.37 515.34L576.38 514.95L576.37 514.56L576.36 514.17L576.33 513.78L576.29 513.4L576.25 513.01L576.19 512.63L576.12 512.24L576.05 511.86L575.96 511.48L575.87 511.1L575.76 510.73L575.64 510.35L575.52 509.98L575.38 509.61L575.24 509.25L575.08 508.88L574.92 508.52L574.74 508.17L574.56 507.82L574.36 507.47L574.16 507.13L573.94 506.79L573.72 506.46L573.49 506.14L573.25 505.83L573.01 505.52L572.75 505.22L572.49 504.92L572.23 504.64L571.95 504.36L571.67 504.09L571.38 503.82L571.09 503.57L570.79 503.32L570.48 503.08L570.17 502.85L569.85 502.63L569.53 502.41L569.2 502.2L568.86 502.01L568.52 501.82L568.18 501.64L567.83 501.46L567.48 501.3L567.12 501.15L566.76 501L566.4 500.87L566.03 500.74L565.65 500.63L565.28 500.52L564.9 500.42L564.52 500.33L564.13 500.26L563.75 500.19L563.36 500.13L562.97 500.08L562.57 500.05L562.18 500.02L561.78 500.01L561.38 500L540 500L540 467.5L539.99 466.88L539.95 466.27L539.89 465.67L539.8 465.07L539.69 464.48L539.56 463.9L539.41 463.33L539.23 462.76L539.04 462.21L538.82 461.67L538.58 461.13L538.32 460.61L538.05 460.1L537.75 459.6L537.43 459.12L537.1 458.65L536.75 458.19L536.38 457.74L536 457.31L535.6 456.9L535.19 456.5L534.76 456.12L534.31 455.75L533.85 455.4L533.38 455.07L532.9 454.75L532.4 454.45L531.89 454.18L531.37 453.92L530.83 453.68L530.29 453.46L529.74 453.27L529.17 453.09L528.6 452.94L528.02 452.81L527.43 452.7L526.83 452.61L526.23 452.55L525.62 452.51L525 452.5L515 452.5L514.38 452.51Z" id="bYyGyPQLi"></path><path d="M419.75 630L420 630L420 629.75L419.75 630Z" id="a9CnkdZsXu"></path><path d="M570 384.75L569.75 385L570 385L570 384.75Z" id="a418xBJmVO"></path><path d="M358.79 24.65C349.35 15.21 336.79 10 323.44 10C303.09 10 140.34 10 120 10C92.43 10 70 32.43 70 60C70 112 70 528 70 580C70 607.57 92.43 630 120 630C139.98 630 239.9 630 419.75 630L399.75 610C231.9 610 138.65 610 120 610C103.46 610 90 596.54 90 580C90 528 90 112 90 60C90 43.46 103.46 30 120 30C140.34 30 303.09 30 323.44 30C331.45 30 338.98 33.12 344.65 38.78C364.3 58.44 521.56 215.7 541.21 235.36C546.79 240.94 550 248.67 550 256.57C550 263.78 550 299.84 550 364.75L570 384.75C570 307.84 570 265.11 570 256.57C570 243.22 564.8 230.66 555.36 221.22C516.04 181.9 378.44 44.3 358.79 24.65Z" id="c1iwsnhqQA"></path><path d="M569.75 385L570 384.75L550 364.75" id="b651sO2iw"></path></defs><g><g><g><use xlink:href="#a2SgDkLAT" opacity="1" fill="#ff402f" fill-opacity="1"></use><g><use xlink:href="#a2SgDkLAT" opacity="1" fill-opacity="0" stroke="#000000" stroke-width="1" stroke-opacity="0"></use></g></g><g><use xlink:href="#bYyGyPQLi" opacity="1" fill="#ff402f" fill-opacity="1"></use><g><use xlink:href="#bYyGyPQLi" opacity="1" fill-opacity="0" stroke="#000000" stroke-width="1" stroke-opacity="0"></use></g></g><g><use xlink:href="#a9CnkdZsXu" opacity="1" fill="#ff9a30" fill-opacity="1"></use><g><use xlink:href="#a9CnkdZsXu" opacity="1" fill-opacity="0" stroke="#000000" stroke-width="1" stroke-opacity="0"></use></g></g><g><use xlink:href="#a418xBJmVO" opacity="1" fill="#ff9a30" fill-opacity="1"></use><g><use xlink:href="#a418xBJmVO" opacity="1" fill-opacity="0" stroke="#000000" stroke-width="1" stroke-opacity="0"></use></g></g><g><use xlink:href="#c1iwsnhqQA" opacity="1" fill="#ff402f" fill-opacity="1"></use><g><use xlink:href="#c1iwsnhqQA" opacity="1" fill-opacity="0" stroke="#000000" stroke-width="1" stroke-opacity="0"></use></g></g><g><use xlink:href="#b651sO2iw" opacity="1" fill="#ffffff" fill-opacity="1"></use><g><use xlink:href="#b651sO2iw" opacity="1" fill-opacity="0" stroke="#000000" stroke-width="1" stroke-opacity="0"></use></g></g></g></g></svg>